<?xml version="1.0" encoding="utf-8"?>
<!-- Generator: Adobe Illustrator 21.0.2, SVG Export Plug-In . SVG Version: 6.00 Build 0)  -->
<svg version="1.1" id="ico" xmlns="http://www.w3.org/2000/svg" xmlns:xlink="http://www.w3.org/1999/xlink" x="0px" y="0px"
	 width="44px" height="44px" viewBox="0 0 44 44" style="enable-background:new 0 0 44 44;" xml:space="preserve">
<style type="text/css">
	.st0{fill:none;stroke:#6D6D6D;stroke-width:2;stroke-miterlimit:10;}
	.st1{fill:none;stroke:#C5A762;stroke-width:2;stroke-miterlimit:10;}
</style>
<path class="st0" d="M38,42H6c-2.2,0-4-1.8-4-4V10h40v28C42,40.2,40.2,42,38,42z"/>
<line class="st0" x1="10" y1="14" x2="10" y2="2"/>
<line class="st0" x1="22" y1="14" x2="22" y2="2"/>
<line class="st0" x1="34" y1="14" x2="34" y2="2"/>
<line class="st0" x1="19" y1="22" x2="25" y2="22"/>
<line class="st0" x1="19" y1="34" x2="25" y2="34"/>
<line class="st1" x1="19" y1="28" x2="25" y2="28"/>
<line class="st1" x1="31" y1="22" x2="37" y2="22"/>
<line class="st1" x1="31" y1="34" x2="37" y2="34"/>
<line class="st0" x1="31" y1="28" x2="37" y2="28"/>
<line class="st0" x1="7" y1="22" x2="13" y2="22"/>
<line class="st0" x1="7" y1="34" x2="13" y2="34"/>
<line class="st0" x1="7" y1="28" x2="13" y2="28"/>
<line class="st0" x1="1" y1="6.1" x2="43" y2="6.1"/>
</svg>
