<?xml version="1.0" encoding="utf-8"?>
<!-- Generator: Adobe Illustrator 21.0.2, SVG Export Plug-In . SVG Version: 6.00 Build 0)  -->
<svg version="1.1" id="ico" xmlns="http://www.w3.org/2000/svg" xmlns:xlink="http://www.w3.org/1999/xlink" x="0px" y="0px"
	 width="44px" height="44px" viewBox="0 0 44 44" style="enable-background:new 0 0 44 44;" xml:space="preserve">
<style type="text/css">
	.st0{fill:none;stroke:#6D6D6D;stroke-width:2;stroke-miterlimit:10;}
	.st1{fill:none;stroke:#C5A762;stroke-width:2;stroke-miterlimit:10;}
</style>
<path class="st0" d="M27.7,9.6c0,4.2-3.4,10.8-7.6,10.8s-7.6-6.6-7.6-10.8S16,2,20.2,2S27.7,5.4,27.7,9.6z"/>
<path class="st0" d="M16,18.1l-9.2,5.3c-1.7,1-2.7,2.8-2.7,4.7v11.7"/>
<line class="st0" x1="23.9" y1="18.1" x2="33.2" y2="23.4"/>
<path class="st0" d="M28,20.2c-0.9,3.5-4.1,6.1-7.9,6.1c-3.8,0-7-2.6-7.9-6.1"/>
<polyline class="st0" points="8.9,42 8.9,33.4 6.9,28 "/>
<rect x="27.9" y="32" class="st1" width="12" height="10"/>
<path class="st1" d="M38.9,29c0-2.8-2.2-5-5-5s-5,2.2-5,5v2"/>
</svg>
