<svg xmlns="http://www.w3.org/2000/svg" width="238.74" height="60.84" viewBox="0 0 238.74 60.84"><title>logo_reshape</title><polygon points="14.63 48.78 14.63 60.84 19.79 54.26 14.83 48.78 14.63 48.78" fill="#fff"/><polygon points="0 19.91 0.23 19.83 0 19.83 0 19.91" fill="#fff"/><path d="M26.39,31.9a6.43,6.43,0,0,0-3.87-1H15.89v7.85h6.62a6.17,6.17,0,0,0,3.87-1.11,3.53,3.53,0,0,0,1.42-2.94A3.26,3.26,0,0,0,26.39,31.9Z" transform="translate(-1.26 -0.18)" fill="#fff"/><path d="M68.84,18.27a7.68,7.68,0,0,1-2.62,1.34,11.81,11.81,0,0,1-3.47.47,12.28,12.28,0,0,1-3.09-.39,8.05,8.05,0,0,1-2.74-1.28,6.39,6.39,0,0,1-2.63-5.15v-.51h5.41l0,.43a2.36,2.36,0,0,0,.23.89,2,2,0,0,0,.64.75,3.11,3.11,0,0,0,1,.45,5.39,5.39,0,0,0,1.32.16c.9,0,2.43-.15,2.65-1.16a1.2,1.2,0,0,0-.48-1.18,5.57,5.57,0,0,0-2.14-.8l-.11,0c-.61-.14-1.26-.31-2-.52a18.37,18.37,0,0,1-2-.64,7.68,7.68,0,0,1-1.91-1.05,5.08,5.08,0,0,1-2-4.19A5.49,5.49,0,0,1,55.58,3,6.06,6.06,0,0,1,57.36,1.1,7.51,7.51,0,0,1,59.13.18L1.49,20H26.09q7.21,0,11.62,3.92a13.15,13.15,0,0,1,4.4,10.31,13.82,13.82,0,0,1-2.58,8.34,14.44,14.44,0,0,1-7.22,5.15L44.5,61,70.18,16.75A5.9,5.9,0,0,1,68.84,18.27Z" transform="translate(-1.26 -0.18)" fill="#fff"/><path d="M65,5.83a2.34,2.34,0,0,0-.19-.57,1.51,1.51,0,0,0-.51-.55,2.51,2.51,0,0,0-.83-.32,5.57,5.57,0,0,0-1.19-.11,4.47,4.47,0,0,0-.81.08,1.55,1.55,0,0,0-1,.7.93.93,0,0,0,0,.79c.19.48.77.64,1.63.85l.37.1,2.74.7c.32.06.82.19,1.43.37a7.33,7.33,0,0,1,1.18.47l2.75-2.23H65Z" transform="translate(-1.26 -0.18)" fill="#fff"/><path d="M104.1,28.52a8.52,8.52,0,0,0-2.24-6.05q-2.24-2.39-7.13-2.39H84.16V43.51H89v-6h4.45a6.23,6.23,0,0,0,.92,0L99,43.51h5.81l-5.57-7C102.47,35.16,104.1,32.47,104.1,28.52ZM93.3,33.57H89V24.19h4.92c3.53,0,5.06,2,5.06,4.69C99,31.77,97.06,33.57,93.3,33.57Z" transform="translate(-1.26 -0.18)" fill="#fff"/><path d="M116.76,25.12a9.13,9.13,0,0,0-9.44,9.34A9.05,9.05,0,0,0,110,41.08a9.19,9.19,0,0,0,6.79,2.69,10.3,10.3,0,0,0,8.32-3.72l-3-2.46a6,6,0,0,1-4.75,2.23,5.12,5.12,0,0,1-5.26-4h13.65c0-.17,0-.76,0-1a10,10,0,0,0-2.41-6.95A8.31,8.31,0,0,0,116.76,25.12Zm-4.69,7.71a4.78,4.78,0,0,1,4.69-4c3,0,4.28,1.66,4.45,4Z" transform="translate(-1.26 -0.18)" fill="#fff"/><path d="M146.21,32.11a18.32,18.32,0,0,0-6.52-2.49c-3.84-.83-5.3-1.56-5.3-3.16s1.39-2.53,3.8-2.53a19.4,19.4,0,0,1,7.3,1.56l2-3.79a23.08,23.08,0,0,0-9.17-1.9,10,10,0,0,0-6.45,2,6.23,6.23,0,0,0-2.38,5.09,5.66,5.66,0,0,0,3.64,5.45,23.21,23.21,0,0,0,5.26,1.63c3.7.83,5.09,1.6,5.09,3.09,0,1.73-1.56,2.66-4.18,2.66a23.54,23.54,0,0,1-4.28-.37,17.79,17.79,0,0,1-4.08-1.43l-1.77,3.69a23.37,23.37,0,0,0,4.79,1.8,24.42,24.42,0,0,0,5.16.43,10.85,10.85,0,0,0,6.72-1.9,6.3,6.3,0,0,0,2.55-5.29A5.16,5.16,0,0,0,146.21,32.11Z" transform="translate(-1.26 -0.18)" fill="#fff"/><path d="M162.37,25.12a9.41,9.41,0,0,0-4.93,1.26V18.44h-4.72V43.51h4.72V30.64a6.33,6.33,0,0,1,4.08-1.36c2.68,0,4,1.4,4,4.16V43.51h4.72V33.44C170.25,27.62,167.8,25.12,162.37,25.12Z" transform="translate(-1.26 -0.18)" fill="#fff"/><path d="M188.93,26.59a10.68,10.68,0,0,0-5.4-1.5,8.61,8.61,0,0,0-6.66,2.76,9.46,9.46,0,0,0-2.51,6.58A9.58,9.58,0,0,0,176.87,41a8.61,8.61,0,0,0,6.66,2.76,9.68,9.68,0,0,0,5.4-1.6v1.33h4.72V25.46h-4.72Zm0,11.5a6.83,6.83,0,0,1-4.55,1.53,5.3,5.3,0,0,1-3.94-1.53,5,5,0,0,1-1.53-3.66,5.08,5.08,0,0,1,1.49-3.62,5.33,5.33,0,0,1,4-1.53,6.92,6.92,0,0,1,4.55,1.56Z" transform="translate(-1.26 -0.18)" fill="#fff"/><path d="M208.82,25.12a10.75,10.75,0,0,0-5.37,1.4V25.46h-4.72V49.33h4.72V42.41a10.79,10.79,0,0,0,5.37,1.36,9.2,9.2,0,0,0,6.62-2.59,9,9,0,0,0,2.72-6.72,9,9,0,0,0-2.72-6.75A9.2,9.2,0,0,0,208.82,25.12Zm3.09,13.07A5.56,5.56,0,0,1,208,39.62a6.61,6.61,0,0,1-4.52-1.53V30.84A6.88,6.88,0,0,1,208,29.28a5.46,5.46,0,0,1,3.94,1.5,4.79,4.79,0,0,1,1.6,3.69A4.86,4.86,0,0,1,211.91,38.19Z" transform="translate(-1.26 -0.18)" fill="#fff"/><path d="M240,34.77a10,10,0,0,0-2.41-6.95A8.3,8.3,0,0,0,231,25.12a9.13,9.13,0,0,0-9.44,9.34,9.05,9.05,0,0,0,2.65,6.62A9.18,9.18,0,0,0,231,43.78a10.29,10.29,0,0,0,8.32-3.72l-3-2.46a6,6,0,0,1-4.75,2.23,5.12,5.12,0,0,1-5.27-4H240C240,35.63,240,35,240,34.77Zm-13.65-1.93a4.77,4.77,0,0,1,4.69-4c3,0,4.28,1.66,4.45,4Z" transform="translate(-1.26 -0.18)" fill="#fff"/></svg>